PathFileType	4	(X/Y/Z)	c:/Users/goper/Files/vsCode/490R/osim_files/C10/C10_Fast_06.trc
DataRate	CameraRate	NumFrames	NumMarkers	Units                	OrigDataRate	OrigDataStartFrame	OrigNumFrames
250.00	250.00	11	36	mm	250.0	809	2157
                Frame#	Time	LPSIS			LASIS			LTH1			LTH2			LTH3			LTH4			LLFE			LMFE			LSH1			LSH2			LSH3			LSH4			LLMAL			LMMAL			LCAL			LMTP5			LTOE			LMTP1			RPSIS			RASIS			RTH1			RTH2			RTH3			RTH4			RLFE			RMFE			RSH1			RSH2			RSH3			RSH4			RLMAL			RMMAL			RCAL			RMTP1			RTOE			RMTP5		
		X1	Y1	Z1	X2	Y2	Z2	X3	Y3	Z3	X4	Y4	Z4	X5	Y5	Z5	X6	Y6	Z6	X7	Y7	Z7	X8	Y8	Z8	X9	Y9	Z9	X10	Y10	Z10	X11	Y11	Z11	X12	Y12	Z12	X13	Y13	Z13	X14	Y14	Z14	X15	Y15	Z15	X16	Y16	Z16	X17	Y17	Z17	X18	Y18	Z18	X19	Y19	Z19	X20	Y20	Z20	X21	Y21	Z21	X22	Y22	Z22	X23	Y23	Z23	X24	Y24	Z24	X25	Y25	Z25	X26	Y26	Z26	X27	Y27	Z27	X28	Y28	Z28	X29	Y29	Z29	X30	Y30	Z30	X31	Y31	Z31	X32	Y32	Z32	X33	Y33	Z33	X34	Y34	Z34	X35	Y35	Z35	X36	Y36	Z36

809	3.23200	-20.94858	1003.97015	373.22656	-167.70032	977.61450	526.25183	-60.09410	763.85034	563.98096	-54.56803	717.30872	558.57874	-118.96374	754.18372	558.06641	-104.33296	708.60126	549.57166	2.17791	481.17117	484.62924	-10.10274	469.72412	367.24420	85.16595	417.80252	482.13672	98.21960	371.62283	482.83682	27.66590	395.31296	477.40158	48.22239	354.77454	479.31284	157.06056	104.30896	430.85419	0.00000	0.00000	0.00000	232.02223	63.42589	389.91290	61.89301	31.19501	451.52191	6.25098	46.75458	387.37347	48.86229	27.54831	340.74295	-28.32310	989.83710	294.47070	-191.92642	961.12183	192.96074	-179.80519	689.95203	151.73044	-205.28333	653.11462	153.97415	-233.03331	718.93579	148.62115	-252.04381	678.89630	150.92947	-345.67587	482.30640	215.82399	-365.53537	489.06503	331.20728	-326.46970	373.22867	212.07358	-350.77731	336.89044	210.51447	-382.30026	402.52158	211.38368	-397.18301	361.04346	209.89928	-501.58475	112.80885	251.54581	0.00000	0.00000	0.00000	-481.61865	40.66319	295.86301	-653.52020	131.48013	310.64136	-664.61627	164.39781	270.30682	-628.08435	124.89075	212.08066
810	3.23600	-27.42207	1003.03857	372.55423	-173.71075	976.72443	526.05603	-65.07157	763.61145	563.33179	-59.48027	717.05414	558.08978	-123.90784	753.77856	559.78064	-109.47366	707.85583	548.90704	-2.14202	480.97781	484.67880	-15.24989	468.87823	367.42175	81.35162	418.22971	481.94440	94.88969	372.24875	482.16299	23.23339	394.13852	475.51956	44.97797	354.81363	479.36066	156.20081	105.36697	430.79135	0.00000	0.00000	0.00000	231.50218	65.22013	389.81122	61.83260	31.21041	451.44226	6.17583	46.62913	387.28714	48.86156	27.61739	340.70432	-34.81781	988.90796	293.73108	-198.59039	959.82776	192.59167	-185.11606	688.65857	152.21327	-210.46048	651.69873	154.23872	-238.39638	717.40643	148.91876	-257.31113	677.23676	151.08514	-352.45981	481.42307	216.10831	-370.64075	487.53793	331.94565	-333.81882	372.22348	211.79617	-358.19070	336.24292	210.59476	-389.33826	401.92719	211.85599	-404.75574	360.45731	210.19716	-510.33063	112.91523	251.86577	0.00000	0.00000	0.00000	-490.59164	40.38677	295.61246	-661.93335	132.06305	311.82770	-672.88940	165.42020	271.75296	-636.93323	126.04458	213.07806
811	3.24000	-33.87658	1002.08789	371.84747	-179.59741	975.83301	525.89966	-70.20891	763.35901	562.72668	-64.53488	716.81915	557.62933	-128.90570	752.13788	555.64264	-114.56289	707.45660	548.88434	-6.70703	480.74066	484.84659	-20.55530	467.95517	367.75354	77.31549	418.61987	481.81281	91.13738	372.55490	482.02231	19.41737	393.94531	475.62088	41.59655	354.87747	479.52689	155.30626	106.52016	430.86374	0.00000	0.00000	0.00000	231.02078	67.29565	389.66638	61.76915	31.23357	451.39264	6.11500	46.48070	387.24570	48.78409	27.71287	340.80649	-41.42936	987.89410	293.03027	-205.32698	958.61218	192.25017	-190.53403	687.60840	152.69432	-215.80460	650.47424	154.50314	-243.93724	716.13495	149.22725	-262.77679	675.93561	151.17955	-360.01306	480.58252	217.69597	-375.95828	486.12744	332.60709	-340.99115	371.21686	211.56303	-365.98550	335.22089	209.87386	-396.20139	401.22675	212.40681	-412.03271	359.77078	210.55479	-518.24017	112.60399	252.38031	0.00000	0.00000	0.00000	-498.74539	39.79944	295.63055	-669.51489	132.10382	312.97906	-680.49054	165.80756	273.17084	-644.95703	126.31113	214.27077
812	3.24400	-40.45703	1001.12842	371.18198	-185.50081	975.01666	525.74158	-75.62769	763.06580	562.21661	-69.82377	716.47766	557.24670	-134.29150	751.60303	555.52893	-119.88077	706.95917	548.82330	-11.43109	480.47485	485.03357	-25.89915	467.09036	368.10358	73.03149	418.96570	481.87131	87.13637	372.86011	482.04868	15.37586	393.64667	475.81821	38.07466	354.85858	479.74600	154.30991	107.66430	431.01709	0.00000	0.00000	0.00000	230.23784	68.99462	389.94916	61.68121	31.10162	451.12125	6.06994	46.33820	387.18314	48.66578	27.76808	340.92044	-48.03209	986.88776	292.32211	-212.14725	957.42615	191.89594	-196.29402	686.64594	153.09181	-221.53264	649.52472	154.70853	-249.75342	715.11194	149.48883	-268.40289	674.86151	151.21964	-366.98154	479.86523	218.07907	-381.43411	484.74887	333.29874	-348.08847	370.27161	211.40701	-373.16855	334.36407	209.79417	-402.98340	400.36118	212.88284	-419.13062	358.90536	210.88165	-525.23621	111.87289	253.07697	0.00000	0.00000	0.00000	-506.07800	38.86022	295.93018	-676.40387	131.71060	314.15320	-687.61810	165.57883	274.19720	-652.23602	126.10370	215.30440
813	3.24800	-47.09816	1000.10852	370.44574	-191.57022	974.16345	525.59888	-81.18490	762.69489	561.64099	-75.29426	716.13068	556.90704	-139.82840	751.14062	555.42969	-125.34654	706.46631	548.81824	-16.37111	480.16541	485.29666	-31.31720	466.22388	368.51694	68.62489	419.34326	482.05292	82.95756	373.10822	482.13605	11.31048	393.46655	476.14932	34.34497	354.78128	479.97495	153.25432	108.87348	431.29840	0.00000	0.00000	0.00000	229.58469	71.09356	390.16434	61.57982	31.25025	451.33090	6.02229	46.17020	387.16162	48.53874	27.84241	341.04166	-54.66369	985.87482	291.60172	-218.91774	956.39240	191.54893	-202.29729	685.89764	153.46642	-227.49507	648.79010	154.92755	-255.68074	714.32770	149.61163	-274.47186	674.09583	151.25620	-374.10461	479.15506	218.47437	-387.15482	483.54401	333.81604	-354.99097	369.34332	211.29675	-380.07483	333.45682	209.72968	-410.74484	399.61008	212.78946	-426.06891	357.99036	211.21895	-532.15259	110.80881	253.25607	0.00000	0.00000	0.00000	-512.54883	37.61857	296.43982	-682.60809	130.72090	315.24130	-693.77802	164.59291	275.53018	-659.25067	125.26865	215.74739
814	3.25200	-53.81417	999.16620	369.70657	-197.55460	973.34796	525.43182	-86.97395	762.36761	561.20056	-80.95012	715.80206	556.62323	-145.60805	750.63940	555.33014	-131.06635	705.99054	548.76520	-21.51608	479.78961	485.62283	-36.77817	465.33936	368.99338	64.02496	419.72580	482.27951	78.58069	373.33401	482.30011	6.91326	393.09827	476.40314	30.47790	354.73087	480.29172	152.10866	110.12718	431.67969	0.00000	0.00000	0.00000	228.85768	73.22681	390.52734	61.45102	31.25240	451.35382	5.98367	46.01737	387.09714	48.41341	27.95522	341.22351	-61.40217	984.86224	290.90527	-225.68875	955.44617	191.19354	-208.63754	685.26477	153.71419	-233.84763	648.20496	155.11415	-262.05905	713.71472	149.69890	-280.75894	673.47565	151.27594	-381.25208	478.50998	218.86159	-392.76166	482.45224	334.35336	-361.66141	368.47137	211.24899	-386.75043	332.47363	209.76465	-417.54730	398.62262	213.09254	-432.84750	356.89014	211.57040	-537.92267	109.28555	253.92615	0.00000	0.00000	0.00000	-518.12091	36.13020	297.14917	-688.20111	129.16008	316.32550	-699.47009	162.95956	276.68549	-664.96912	123.27470	217.15518
815	3.25600	-60.54271	998.16632	368.95636	-203.73628	972.51483	525.30658	-91.79691	763.19653	559.96429	-85.83675	716.05243	556.30042	-151.64120	750.09338	555.18988	-138.23450	705.00092	547.49945	-26.82711	479.44568	486.00418	-42.27261	464.52045	369.48074	59.31979	420.06049	482.64807	74.05284	373.58078	482.57269	2.50527	392.88608	476.74258	26.39671	354.69073	480.62180	150.86757	111.47005	432.13730	0.00000	0.00000	0.00000	228.10866	75.46861	390.94318	61.27446	31.24335	451.34830	5.93434	45.85187	387.03989	48.25399	28.00568	341.43259	-68.18523	983.83722	290.18823	-232.58981	954.57330	190.86485	-215.35738	684.70013	153.87640	-240.63101	647.69818	155.25194	-268.67163	713.17859	149.70813	-287.48456	673.02789	151.30962	-388.39825	477.89017	219.24838	-398.97598	481.48163	334.74551	-368.18646	367.59698	211.38513	-393.17194	331.49466	209.94501	-424.28354	397.48190	213.34509	-439.35840	355.64978	211.96826	-542.96674	107.40969	254.65137	0.00000	0.00000	0.00000	-522.83136	34.35890	297.96027	-693.02496	126.82680	317.54510	-704.53107	160.63889	277.76883	-670.09204	120.91508	218.30446
816	3.26000	-67.37898	997.18121	368.18546	-209.86664	971.72223	525.12665	-97.96971	762.84106	559.66205	-92.99459	715.12451	556.21350	-157.82481	749.58252	555.02350	-142.99054	705.03369	548.78625	-32.31651	479.09784	486.41962	-47.85220	463.71609	369.95163	54.37596	420.34918	483.10696	69.32684	373.82996	482.94678	-2.18888	392.58243	477.15463	22.16985	354.71725	481.10181	149.58475	112.86596	432.71957	0.00000	0.00000	0.00000	227.31656	77.86470	391.49707	61.09136	31.06747	451.17767	5.64129	45.23603	387.77798	48.10043	28.12163	341.60480	-74.96321	982.88818	289.46478	-239.46581	953.82019	190.56337	-222.34433	684.36816	154.19617	-247.70790	647.25861	155.37386	-275.59756	712.81842	149.65027	-294.50668	672.67932	151.32214	-395.59222	477.28412	219.67532	-405.58755	480.72784	335.00500	-374.58853	366.78937	211.62852	-399.40359	330.43066	210.23950	-430.84674	396.25882	213.69374	-445.74164	354.30591	212.35959	-547.31854	105.28594	255.46616	0.00000	0.00000	0.00000	-526.67267	32.41523	298.88519	-695.75049	123.83955	317.01785	-708.97430	157.68819	278.75064	-674.45129	118.11102	219.25919
817	3.26400	-73.06491	996.88324	366.91019	-216.20618	970.90149	524.95117	-104.42636	762.44537	559.42456	-98.26462	715.33783	556.02423	-163.37372	749.79840	554.75537	-148.81895	705.17261	548.49872	-37.82705	478.76480	486.84033	-53.41692	462.98373	370.41986	50.68175	421.47125	483.29004	64.78281	374.06256	483.40793	-5.89052	392.94586	477.50690	19.67362	354.57321	479.61288	148.92532	114.55982	433.21661	0.00000	0.00000	0.00000	227.22496	80.77873	391.79590	61.68035	31.19729	451.07092	5.51584	45.18665	387.65814	48.03199	28.30898	341.71942	-81.13859	982.24799	288.38809	-246.37886	953.11444	190.25880	-229.60457	683.70245	153.84781	-255.10652	646.89270	155.49864	-282.82648	712.46771	149.46281	-301.81702	672.41089	151.33957	-402.70215	476.66977	220.14586	-413.07260	480.42761	335.23010	-380.77579	365.95123	211.99205	-405.26932	329.32968	210.65544	-437.46643	394.87323	214.04701	-451.93347	352.86209	212.74463	-550.93835	102.90260	256.29111	0.00000	0.00000	0.00000	-528.78693	30.79075	299.53015	-699.54736	120.88486	318.66275	-712.42706	154.31181	279.28876	-678.31409	114.43551	220.47241
818	3.26800	-80.00463	995.88068	366.13834	-222.52005	970.08380	524.75543	-110.89817	762.10724	559.27747	-104.66637	714.98871	556.01483	-169.99261	749.21887	554.60052	-155.26305	704.74927	548.36993	-43.59454	478.40033	487.39468	-59.01315	462.29984	370.85992	45.48743	421.84952	483.93564	59.61981	374.26154	483.98285	-10.83533	392.64709	478.04214	15.24043	354.55829	480.17767	147.51172	116.03056	433.94861	0.00000	0.00000	0.00000	226.26457	83.25363	392.51608	61.43568	31.16044	451.14594	5.52166	45.00042	387.60629	48.13261	28.67829	341.91394	-87.99979	981.32538	287.69598	-253.45244	952.48737	189.99062	-237.17326	683.22314	153.65121	-262.76959	646.51758	155.55354	-290.23740	712.18567	149.14940	-309.46378	672.23706	151.31288	-409.86551	476.07605	220.67075	-420.44543	479.73743	335.33130	-386.71048	365.18375	212.62448	-411.00552	328.20688	211.09543	-443.71576	393.44357	214.39803	-457.79999	351.38998	213.26625	-553.83667	100.28465	257.27374	0.00000	0.00000	0.00000	-530.91876	28.46595	300.55606	-703.74957	116.43900	320.64362	-716.02228	150.01981	280.57651	-681.43805	110.53465	221.50058
819	3.27200	-87.01272	994.89246	365.38214	-229.13756	969.25745	524.54297	-117.72943	761.68695	559.14990	-111.32573	714.58771	556.01447	-176.61638	748.73907	554.54285	-161.81223	704.14905	548.58173	-49.58880	477.97974	487.95795	-64.66212	461.62933	371.31082	40.07416	422.11981	484.65509	54.30383	374.44168	484.61411	-15.90170	392.21313	478.59232	10.63882	354.45636	480.83511	145.92857	117.51511	434.80286	0.00000	0.00000	0.00000	225.36382	85.79869	393.35587	61.03226	31.24785	451.55942	5.51695	44.76905	387.62344	48.09336	28.89428	342.00565	-94.96104	980.37451	287.01733	-260.44388	951.93475	189.73157	-244.97743	682.70276	153.39401	-270.80225	646.15881	155.52013	-297.93402	711.94086	148.90517	-317.32510	672.06494	151.27344	-416.97806	475.40610	221.20253	-427.84836	479.16681	335.49341	-392.43488	364.49637	213.31502	-416.38666	327.07910	211.71201	-450.09863	391.65475	214.60002	-463.46652	349.72653	213.77171	-556.10529	97.46014	258.23630	0.00000	0.00000	0.00000	-532.34796	26.15516	301.58334	-706.11646	111.93750	321.65878	-719.41248	145.24739	282.12967	-683.87683	106.21625	222.52414
